<?xml version="1.0" standalone="no"?>
<!DOCTYPE svg PUBLIC "-//W3C//DTD SVG 20010904//EN"
 "http://www.w3.org/TR/2001/REC-SVG-20010904/DTD/svg10.dtd">
<svg version="1.0" xmlns="http://www.w3.org/2000/svg"
 width="700.000000pt" height="700.000000pt" viewBox="0 0 700.000000 700.000000"
 preserveAspectRatio="xMidYMid meet">
<metadata>
Created by potrace 1.11, written by Peter Selinger 2001-2013
</metadata>
<g transform="translate(0.000000,700.000000) scale(0.100000,-0.100000)"
fill="#000000" stroke="none">
<path d="M0 3500 l0 -3500 3500 0 3500 0 0 3500 0 3500 -3500 0 -3500 0 0
-3500z m3607 1813 c55 -55 82 -93 112 -156 54 -112 65 -174 57 -321 -8 -144 3
-219 44 -302 84 -171 240 -250 422 -214 85 16 149 48 233 116 149 120 230 154
370 154 105 0 170 -15 253 -60 123 -65 214 -167 437 -490 167 -241 235 -328
342 -436 102 -102 202 -185 340 -280 131 -90 197 -147 249 -213 31 -39 40 -57
31 -63 -20 -13 -180 -9 -259 6 -82 16 -223 65 -276 96 -35 21 -34 20 15 -37
27 -32 64 -79 82 -106 40 -59 106 -196 98 -204 -11 -11 -141 28 -224 67 -87
41 -214 123 -253 165 -41 44 -40 27 5 -57 45 -85 85 -201 85 -245 0 -21 -3
-23 -22 -17 -45 13 -144 67 -203 109 -68 49 -205 187 -255 257 -37 53 -47 56
-29 12 27 -70 51 -264 33 -264 -4 0 -37 20 -74 45 -81 54 -200 176 -260 267
-24 37 -45 66 -46 65 -1 -1 5 -37 14 -80 8 -42 13 -80 10 -82 -9 -10 -99 34
-185 90 -104 68 -245 203 -328 314 -75 100 -159 256 -196 366 -15 43 -31 81
-36 82 -13 5 -122 -67 -172 -112 -64 -58 -137 -175 -167 -268 -36 -110 -44
-288 -19 -404 24 -113 75 -211 147 -289 82 -87 121 -113 331 -216 111 -55 177
-93 175 -101 -7 -20 -76 -37 -175 -44 l-92 -6 58 -64 c61 -66 135 -199 129
-230 -8 -41 -184 -5 -283 58 -26 16 -45 26 -43 22 64 -127 90 -220 86 -306 -3
-61 -3 -62 -31 -60 -37 2 -131 61 -193 120 l-50 48 4 -115 c5 -130 -10 -225
-36 -235 -24 -9 -149 125 -193 209 l-36 68 -6 -61 c-13 -121 -93 -311 -132
-311 -39 0 -119 190 -132 311 l-6 60 -28 -50 c-57 -106 -159 -221 -194 -221
-9 0 -21 12 -27 28 -13 31 -17 250 -6 301 8 33 8 33 -60 -30 -71 -67 -183
-135 -208 -125 -35 13 -2 213 53 318 38 72 39 76 17 57 -52 -45 -191 -97 -269
-101 -48 -3 -50 -2 -47 22 5 50 73 170 132 232 33 35 60 63 60 63 0 0 -40 1
-88 2 -92 3 -183 21 -189 38 -2 6 77 50 174 99 98 48 206 108 240 132 119 85
201 208 239 359 23 94 24 277 1 365 -28 107 -91 223 -162 298 -56 60 -172 142
-200 142 -5 0 -18 -28 -28 -63 -84 -286 -341 -602 -607 -746 -103 -56 -109
-55 -98 17 5 31 13 72 18 91 5 18 7 32 6 30 -2 -2 -28 -40 -57 -83 -87 -130
-212 -251 -318 -306 l-24 -12 8 78 c4 44 18 115 30 159 13 44 22 81 21 83 -2
1 -20 -24 -41 -55 -89 -136 -295 -308 -433 -363 l-54 -20 7 42 c4 24 19 75 32
113 23 65 41 102 96 195 20 34 20 34 -30 -12 -113 -104 -290 -201 -422 -232
-56 -13 -61 -13 -61 3 0 43 130 255 185 301 9 7 20 21 26 31 7 13 -11 8 -73
-21 -102 -47 -224 -79 -333 -87 -81 -6 -155 1 -155 15 0 22 111 137 181 188
441 321 496 376 798 809 178 255 238 330 324 403 105 89 214 132 342 132 135
0 230 -38 365 -145 132 -105 206 -135 337 -135 106 0 173 28 248 104 112 113
140 203 130 416 -6 157 2 214 49 315 33 71 109 168 173 220 66 54 66 54 170
-52z"/>
</g>
</svg>
